# xmcd
#
# Track frame offsets:
#	150
#	20637
#	41259
#	60606
#	79130
#	100562
#	118319
#	137019
#	156773
#	187668
#	210393
#	225930
#	243802
#	263329
#	283818
#	305135
#
# Disc length: 4290 seconds
#
# Revision: 1
# Processed by: cddbd v1.4b41PL2 Copyright (c) Steve Scherf et al.
# Submitted via: audiograbber 1.80
#
DISCID=c710c010
DTITLE=Chris Rea - The best of
DYEAR=1900
DGENRE=
TTITLE0=The Road to Hell
TTITLE1=Josephine
TTITLE2=Let's dance
TTITLE3=Fool (if you think it's over)
TTITLE4=Auberge
TTITLE5=Julia
TTITLE6=Stainsby Girls
TTITLE7=If you were me (with elton John)
TTITLE8=On the beach
TTITLE9=Looking for the summer
TTITLE10=I can hear your Heartbeat
TTITLE11=You can go your own way
TTITLE12=God's great Banana Skin
TTITLE13=Winter Song
TTITLE14=Gone fishing
TTITLE15=Tell me there's a Heaven
EXTD=
EXTT0=
EXTT1=
EXTT2=
EXTT3=
EXTT4=
EXTT5=
EXTT6=
EXTT7=
EXTT8=
EXTT9=
EXTT10=
EXTT11=
EXTT12=
EXTT13=
EXTT14=
EXTT15=
PLAYORDER=
